HIERARCHY
ROOT center
{
	OFFSET 0.0 0.0 0.0
	CHANNELS 6 Xposition Yposition Zposition Zrotation Yrotation Xrotation
	JOINT left_hip
	{
		OFFSET 0.0 0.0 0.0
		CHANNELS 3 Zrotation Yrotation Xrotation
		JOINT left_knee
		{
			OFFSET 5.987838 -8.253332 -1.700898
			CHANNELS 3 Zrotation Yrotation Xrotation
			JOINT left_ankle
			{
				OFFSET 4.404643 -39.006938 0.923045
				CHANNELS 3 Zrotation Yrotation Xrotation
				JOINT left_feet
				{
					OFFSET -2.138908 -42.656324 -4.088237
					CHANNELS 3 Zrotation Yrotation Xrotation
					End Site
					{
						OFFSET 4.612738 -5.938039 11.983048
					}
				}
			}
		}
	}
	JOINT right_hip
	{
		OFFSET 0.0 0.0 0.0
		CHANNELS 3 Zrotation Yrotation Xrotation
		JOINT right_knee
		{
			OFFSET -6.126615 -9.029527 -1.394336
			CHANNELS 3 Zrotation Yrotation Xrotation
			JOINT right_ankle
			{
				OFFSET -4.468279 -38.793408 -0.315706
				CHANNELS 3 Zrotation Yrotation Xrotation
				JOINT right_feet
				{
					OFFSET 2.483054 -41.932583 -3.686092
					CHANNELS 3 Zrotation Yrotation Xrotation
					End Site
					{
						OFFSET -4.118915 -6.549353 12.749295
					}
				}
			}
		}
	}
	JOINT spine1
	{
		OFFSET 0.0 0.0 0.0
		CHANNELS 3 Zrotation Yrotation Xrotation
		JOINT spine2
		{
			OFFSET 0.471197 12.540101 -4.647393
			CHANNELS 3 Zrotation Yrotation Xrotation
			JOINT neck
			{
				OFFSET 0.519542 13.519283 3.855806
				CHANNELS 3 Zrotation Yrotation Xrotation
				JOINT head1
				{
					OFFSET -0.300406 5.545936 0.481803
					CHANNELS 3 Zrotation Yrotation Xrotation
					JOINT head2
					{
						OFFSET -1.338010 20.315588 -3.028696
						CHANNELS 3 Zrotation Yrotation Xrotation
						End Site
						{
							OFFSET 1.023950 8.481358 4.996801
						}
					}
				}
				JOINT left_armpit
				{
					OFFSET -0.300406 5.545936 0.481803
					CHANNELS 3 Zrotation Yrotation Xrotation
					JOINT left_shoulder
					{
						OFFSET 7.284830 11.268209 -1.256958
						CHANNELS 3 Zrotation Yrotation Xrotation
						JOINT left_elbow
						{
							OFFSET 11.910183 4.183028 -2.791085
							CHANNELS 3 Zrotation Yrotation Xrotation
							JOINT left_wrist
							{
								OFFSET 25.825765 -1.597381 -2.089795
								CHANNELS 3 Zrotation Yrotation Xrotation
								JOINT left_hand
								{
									OFFSET 0.000000 0.000000 0.000000
									CHANNELS 3 Zrotation Yrotation Xrotation
									JOINT left_thumb1
									{
										OFFSET 26.380840 1.299822 -0.766570
										CHANNELS 3 Zrotation Yrotation Xrotation
										JOINT left_thumb2
										{
											OFFSET 4.135653 -1.610023 3.021517
											CHANNELS 3 Zrotation Yrotation Xrotation
											JOINT left_thumb3
											{
												OFFSET 1.906808 -1.108284 2.438784
												CHANNELS 3 Zrotation Yrotation Xrotation
												JOINT left_thumb4
												{
													OFFSET 2.343882 -1.237169 1.816691
													CHANNELS 3 Zrotation Yrotation Xrotation
													End Site
													{
														OFFSET 1.848281 -0.879821 1.011710
													}
												}
											}
										}
									}
									JOINT left_index1
									{
										OFFSET 26.380840 1.299822 -0.766570
										CHANNELS 3 Zrotation Yrotation Xrotation
										JOINT left_index2
										{
											OFFSET 9.566398 0.395517 2.399027
											CHANNELS 3 Zrotation Yrotation Xrotation
											JOINT left_index3
											{
												OFFSET 4.273506 0.141195 0.165790
												CHANNELS 3 Zrotation Yrotation Xrotation
												JOINT left_index4
												{
													OFFSET 2.273964 -0.601666 -0.009206
													CHANNELS 3 Zrotation Yrotation Xrotation
													End Site
													{
														OFFSET 2.018012 -0.333813 -0.097178
													}
												}
											}
										}
									}
									JOINT left_middle1
									{
										OFFSET 26.380840 1.299822 -0.766570
										CHANNELS 3 Zrotation Yrotation Xrotation
										JOINT left_middle2
										{
											OFFSET 9.333468 0.568829 0.060724
											CHANNELS 3 Zrotation Yrotation Xrotation
											JOINT left_middle3
											{
												OFFSET 4.531813 0.065064 -0.459358
												CHANNELS 3 Zrotation Yrotation Xrotation
												JOINT left_middle4
												{
													OFFSET 2.346186 -1.022643 -0.004006
													CHANNELS 3 Zrotation Yrotation Xrotation
													End Site
													{
														OFFSET 2.020199 -0.783405 -0.034273
													}
												}
											}
										}
									}
									JOINT left_ring1
									{
										OFFSET 26.380840 1.299822 -0.766570
										CHANNELS 3 Zrotation Yrotation Xrotation
										JOINT left_ring2
										{
											OFFSET 8.887272 0.289915 -1.760966
											CHANNELS 3 Zrotation Yrotation Xrotation
											JOINT left_ring3
											{
												OFFSET 3.834866 -0.074796 -0.906817
												CHANNELS 3 Zrotation Yrotation Xrotation
												JOINT left_ring4
												{
													OFFSET 2.106077 -1.277141 -0.187322
													CHANNELS 3 Zrotation Yrotation Xrotation
													End Site
													{
														OFFSET 1.703886 -1.100124 -0.131877
													}
												}
											}
										}
									}
									JOINT left_little1
									{
										OFFSET 26.380840 1.299822 -0.766570
										CHANNELS 3 Zrotation Yrotation Xrotation
										JOINT left_little2
										{
											OFFSET 7.967690 -0.139064 -3.310820
											CHANNELS 3 Zrotation Yrotation Xrotation
											JOINT left_little3
											{
												OFFSET 2.984125 -0.511166 -1.314715
												CHANNELS 3 Zrotation Yrotation Xrotation
												JOINT left_little4
												{
													OFFSET 1.498210 -0.760961 -0.416789
													CHANNELS 3 Zrotation Yrotation Xrotation
													End Site
													{
														OFFSET 1.277498 -0.851306 -0.150953
													}
												}
											}
										}
									}
								}
							}
						}
					}
				}
				JOINT right_armpit
				{
					OFFSET -0.300406 5.545936 0.481803
					CHANNELS 3 Zrotation Yrotation Xrotation
					JOINT right_shoulder
					{
						OFFSET -8.485327 11.086364 -1.720577
						CHANNELS 3 Zrotation Yrotation Xrotation
						JOINT right_elbow
						{
							OFFSET -11.073890 4.361720 -1.722815
							CHANNELS 3 Zrotation Yrotation Xrotation
							JOINT right_wrist
							{
								OFFSET -26.228460 -1.438557 -2.947848
								CHANNELS 3 Zrotation Yrotation Xrotation
								JOINT right_hand
								{
									OFFSET 0.000000 0.000000 0.000000
									CHANNELS 3 Zrotation Yrotation Xrotation
									JOINT right_thumb1
									{
										OFFSET -27.015626 0.871278 -0.467466
										CHANNELS 3 Zrotation Yrotation Xrotation
										JOINT right_thumb2
										{
											OFFSET -3.746768 -1.838025 3.313989
											CHANNELS 3 Zrotation Yrotation Xrotation
											JOINT right_thumb3
											{
												OFFSET -1.955950 -1.075948 2.641185
												CHANNELS 3 Zrotation Yrotation Xrotation
												JOINT right_thumb4
												{
													OFFSET -2.462736 -1.313807 2.072533
													CHANNELS 3 Zrotation Yrotation Xrotation
													End Site
													{
														OFFSET -2.066040 -1.069520 1.080637
													}
												}
											}
										}
									}
									JOINT right_index1
									{
										OFFSET -27.015626 0.871278 -0.467466
										CHANNELS 3 Zrotation Yrotation Xrotation
										JOINT right_index2
										{
											OFFSET -9.634891 -0.017934 2.531553
											CHANNELS 3 Zrotation Yrotation Xrotation
											JOINT right_index3
											{
												OFFSET -4.481428 -0.059684 0.165721
												CHANNELS 3 Zrotation Yrotation Xrotation
												JOINT right_index4
												{
													OFFSET -2.407545 -0.769893 0.047050
													CHANNELS 3 Zrotation Yrotation Xrotation
													End Site
													{
														OFFSET -2.056585 -0.449725 -0.023434
													}
												}
											}
										}
									}
									JOINT right_middle1
									{
										OFFSET -27.015626 0.871278 -0.467466
										CHANNELS 3 Zrotation Yrotation Xrotation
										JOINT right_middle2
										{
											OFFSET -9.416744 0.013559 -0.043179
											CHANNELS 3 Zrotation Yrotation Xrotation
											JOINT right_middle3
											{
												OFFSET -4.833378 -0.222518 -0.396640
												CHANNELS 3 Zrotation Yrotation Xrotation
												JOINT right_middle4
												{
													OFFSET -2.456590 -1.200851 0.068021
													CHANNELS 3 Zrotation Yrotation Xrotation
													End Site
													{
														OFFSET -1.989035 -0.937074 0.023328
													}
												}
											}
										}
									}
									JOINT right_ring1
									{
										OFFSET -27.015626 0.871278 -0.467466
										CHANNELS 3 Zrotation Yrotation Xrotation
										JOINT right_ring2
										{
											OFFSET -8.902859 -0.390543 -1.876117
											CHANNELS 3 Zrotation Yrotation Xrotation
											JOINT right_ring3
											{
												OFFSET -4.001120 -0.323451 -0.940860
												CHANNELS 3 Zrotation Yrotation Xrotation
												JOINT right_ring4
												{
													OFFSET -2.256458 -1.488811 -0.105795
													CHANNELS 3 Zrotation Yrotation Xrotation
													End Site
													{
														OFFSET -1.692196 -1.166309 -0.088973
													}
												}
											}
										}
									}
									JOINT right_little1
									{
										OFFSET -27.015626 0.871278 -0.467466
										CHANNELS 3 Zrotation Yrotation Xrotation
										JOINT right_little2
										{
											OFFSET -7.962481 -0.934251 -3.549177
											CHANNELS 3 Zrotation Yrotation Xrotation
											JOINT right_little3
											{
												OFFSET -3.000792 -0.735276 -1.248761
												CHANNELS 3 Zrotation Yrotation Xrotation
												JOINT right_little4
												{
													OFFSET -1.605847 -0.940682 -0.391270
													CHANNELS 3 Zrotation Yrotation Xrotation
													End Site
													{
														OFFSET -1.258825 -0.958843 -0.070891
													}
												}
											}
										}
									}
								}
							}
						}
					}
				}
			}
		}
	}
}
MOTION
Frames: 4
Frame Time: 0.050000
29.388309 32.673414 123.906634 0.0 0.0 180.0 -3.425548 -8.088403 -178.245947 6.979598 0.470677 -4.991763 0.000000 -0.000000 0.000000 0.000000 -0.000000 0.000000 -3.425548 -8.088403 -178.245947 4.715220 0.332988 -4.244241 0.000000 -0.000000 0.000000 -0.000000 -0.000000 0.009503 -3.425548 -8.088403 -178.245947 0.421002 0.289676 -0.565363 1.130240 0.102856 -0.957206 0.700235 0.150525 -0.766172 -4.333211 0.062206 -0.524643 0.700235 0.150525 -0.766172 30.296843 -0.632768 -2.803764 40.062382 3.923999 0.550902 27.780340 -0.268114 -1.256877 -6.106536 7.059981 -3.464353 0.000000 0.000000 0.000000 7.344191 -29.766991 -17.808461 -2.124574 -14.873028 -4.529331 -1.668322 -0.000000 0.000000 0.000000 0.000000 0.000000 19.153407 -3.286026 -1.848023 1.861095 -0.000000 -0.000000 0.088144 -0.000000 -0.000000 0.000000 0.000000 0.000000 2.739183 -3.499943 -0.826896 -3.039337 -0.000000 0.000000 -1.267564 -0.000000 0.000000 0.000000 0.000000 0.000000 -10.739253 4.647953 -2.816062 -6.456733 -0.000000 0.000000 -2.142617 -0.000000 0.000000 0.000000 0.000000 0.000000 -25.597323 10.265278 -11.798318 -8.897141 -0.000000 0.000000 -2.826945 -0.000000 0.000000 0.700235 0.150525 -0.766172 -25.626087 -0.696677 1.867446 -50.013080 -4.954792 3.210327 -13.407693 3.587868 -1.758288 7.352974 -1.538888 -2.670969 0.000000 0.000000 0.000000 -8.584796 28.800155 -18.709122 1.421823 11.335180 -4.031051 0.984242 -0.000000 -0.000000 0.000000 0.000000 0.000000 -18.497992 7.322445 -4.170512 -3.350230 -0.000000 0.000000 -1.006793 -0.000000 0.000000 0.000000 0.000000 0.000000 -5.378488 2.528004 -1.667418 0.187424 -0.000000 -0.000000 0.023507 -0.000000 -0.000000 0.000000 0.000000 0.000000 7.029335 -2.768445 -2.312932 4.307800 -0.000000 -0.000000 1.340722 -0.000000 -0.000000 0.000000 0.000000 0.000000 15.920004 -8.855633 -5.592388 5.156944 -0.000000 -0.000000 1.294835 -0.000000 -0.000000
29.420261 32.259516 123.924157 0.0 0.0 180.0 -3.635160 -8.197588 -178.367468 7.099897 0.213107 -2.180149 0.000000 -0.000000 0.000000 0.000000 -0.000000 0.000000 -3.635160 -8.197588 -178.367468 4.451914 0.373667 -4.870919 0.000000 -0.000000 0.000000 -0.000000 -0.000000 0.012176 -3.635160 -8.197588 -178.367468 0.468146 0.273817 -0.581883 1.140105 0.096672 -0.942156 0.706363 0.143651 -0.750012 -3.164520 -0.102301 -0.765188 0.706363 0.143651 -0.750012 31.153835 -0.874579 -2.474902 40.420148 3.682566 0.744304 25.722822 -0.297797 -1.100914 -6.037265 7.987728 -3.202490 0.000000 0.000000 0.000000 -0.437310 -19.787626 -8.395826 -4.151513 -7.415697 -0.397476 -2.045605 -0.000000 0.000000 0.000000 0.000000 0.000000 19.450135 -7.089749 -3.305519 2.179270 -0.000000 -0.000000 0.188396 -0.000000 -0.000000 0.000000 0.000000 0.000000 3.670545 -4.520408 -0.770448 -3.009061 -0.000000 0.000000 -1.360207 -0.000000 0.000000 0.000000 0.000000 0.000000 -10.365750 5.507927 -2.638218 -6.339358 -0.000000 0.000000 -2.089004 -0.000000 0.000000 0.000000 0.000000 0.000000 -26.564714 10.614207 -12.487480 -9.207730 -0.000000 0.000000 -2.929423 -0.000000 0.000000 0.706363 0.143651 -0.750012 -26.348987 -0.662012 1.726441 -49.421614 -4.063101 2.140306 -12.936100 1.948408 -1.327560 6.947954 -2.673332 -2.729031 0.000000 0.000000 0.000000 -7.833683 28.615102 -17.862244 1.531433 11.048258 -3.862381 1.146051 -0.000000 -0.000000 0.000000 0.000000 0.000000 -17.795875 7.422174 -3.947416 -3.004841 -0.000000 0.000000 -1.010694 -0.000000 0.000000 0.000000 0.000000 0.000000 -4.908404 2.755696 -1.231759 0.416121 -0.000000 -0.000000 0.028435 -0.000000 -0.000000 0.000000 0.000000 0.000000 8.039634 -2.289261 -2.113893 5.288550 -0.000000 -0.000000 1.498601 -0.000000 -0.000000 0.000000 0.000000 0.000000 17.420496 -12.176296 -6.040172 6.261761 -0.000000 -0.000000 1.669654 -0.000000 -0.000000
29.426374 32.534503 123.875363 0.0 0.0 180.0 -3.696939 -8.612277 -178.342203 6.966105 0.645107 -6.754242 0.000000 -0.000000 0.000000 0.000000 -0.000000 0.000000 -3.696939 -8.612277 -178.342203 4.940967 0.268383 -3.304168 0.000000 -0.000000 0.000000 -0.000000 -0.000000 0.059437 -3.696939 -8.612277 -178.342203 0.417077 0.281954 -0.560991 1.120102 0.097096 -0.952987 0.684894 0.144716 -0.761507 -4.013041 -0.067237 -0.699369 0.684894 0.144716 -0.761507 30.331953 -0.450359 -2.635056 42.103331 3.945691 0.807970 24.357176 0.855819 -0.654028 -5.100747 7.196914 -3.241998 0.000000 0.000000 0.000000 5.726050 -22.614657 -15.132592 -1.433561 -10.897066 -3.769140 -1.215192 -0.000000 0.000000 0.000000 0.000000 0.000000 20.940866 -10.247054 -5.238778 2.508099 -0.000000 -0.000000 0.240662 -0.000000 -0.000000 0.000000 0.000000 0.000000 2.962054 -3.319287 -0.374845 -3.021563 -0.000000 0.000000 -1.409605 -0.000000 0.000000 0.000000 0.000000 0.000000 -10.889975 6.242514 -2.709586 -6.823625 -0.000000 0.000000 -2.259909 -0.000000 0.000000 0.000000 0.000000 0.000000 -27.166006 10.489706 -12.787741 -9.470775 -0.000000 0.000000 -3.026905 -0.000000 0.000000 0.684894 0.144716 -0.761507 -26.190024 -0.889745 1.594925 -50.415109 -3.884425 1.860676 -11.562817 0.833339 -1.090836 6.321335 -0.011503 -2.527720 0.000000 0.000000 0.000000 -7.791392 28.528442 -17.802161 1.565646 10.786571 -3.720043 1.041892 -0.000000 -0.000000 0.000000 0.000000 0.000000 -18.658021 7.449975 -4.226005 -3.002240 -0.000000 0.000000 -0.902685 -0.000000 0.000000 0.000000 0.000000 0.000000 -5.000936 1.189173 -0.856771 0.198649 -0.000000 -0.000000 -0.005189 -0.000000 0.000000 0.000000 0.000000 0.000000 7.792242 -2.977800 -2.078739 5.112668 -0.000000 -0.000000 1.396560 -0.000000 -0.000000 0.000000 0.000000 0.000000 18.178162 -9.699585 -6.640559 6.169854 -0.000000 -0.000000 1.647177 -0.000000 -0.000000
29.364546 32.327574 123.520289 0.0 0.0 180.0 -3.770415 -8.114756 -178.023084 7.045210 0.517927 -5.317286 0.000000 -0.000000 0.000000 0.000000 -0.000000 0.000000 -3.770415 -8.114756 -178.023084 5.069274 0.321243 -3.840400 0.000000 -0.000000 0.000000 -0.000000 -0.000000 0.099838 -3.770415 -8.114756 -178.023084 0.406285 0.256658 -0.575937 1.107787 0.072339 -0.954803 0.666899 0.119375 -0.767458 -3.696687 -0.291017 -0.996531 0.666899 0.119375 -0.767458 30.378278 -0.510207 -2.909628 42.119444 4.098522 0.616306 23.578312 2.705838 0.049274 -4.722596 5.785197 -3.340101 0.000000 0.000000 0.000000 12.208014 -26.630699 -22.583724 0.404395 -12.963088 -5.991638 -0.519703 -0.000000 0.000000 0.000000 0.000000 0.000000 20.250800 -8.042814 -4.031868 2.553512 -0.000000 -0.000000 0.321795 -0.000000 -0.000000 0.000000 0.000000 0.000000 2.230048 -0.579341 0.250507 -3.269386 -0.000000 0.000000 -1.405512 -0.000000 0.000000 0.000000 0.000000 0.000000 -11.281469 7.587293 -2.635366 -7.065106 -0.000000 0.000000 -2.323459 -0.000000 0.000000 0.000000 0.000000 0.000000 -25.917542 9.299427 -11.744625 -9.336121 -0.000000 0.000000 -2.990084 -0.000000 0.000000 0.666899 0.119375 -0.767458 -27.021794 -1.162839 1.783456 -50.012445 -4.183949 2.119733 -11.787948 2.733602 -1.500652 7.978845 -1.507590 -2.776323 0.000000 0.000000 0.000000 -7.702999 27.703682 -17.685126 1.435631 10.873423 -3.881749 1.146479 -0.000000 -0.000000 0.000000 0.000000 0.000000 -18.970727 6.456480 -3.759028 -3.234410 -0.000000 0.000000 -0.994601 -0.000000 0.000000 0.000000 0.000000 0.000000 -5.227524 2.156405 -0.941588 0.585961 -0.000000 -0.000000 0.246894 -0.000000 -0.000000 0.000000 0.000000 0.000000 7.700493 -1.575838 -2.043816 5.393749 -0.000000 -0.000000 1.591317 -0.000000 -0.000000 0.000000 0.000000 0.000000 19.790654 -7.438552 -7.494829 7.288455 -0.000000 -0.000000 2.097311 -0.000000 -0.000000
